<svg width="400" height="250" viewBox="0 0 400 250" xmlns="http://www.w3.org/2000/svg">
  <defs>
    <linearGradient id="infinityGradient" x1="0%" y1="50%" x2="100%" y2="50%">
      <stop offset="0%" stop-color="#35193e"/>
      <stop offset="20%" stop-color="#701f57"/>
      <stop offset="40%" stop-color="#ad1759"/>
      <stop offset="60%" stop-color="#e13342"/>
      <stop offset="80%" stop-color="#f37651"/>
      <stop offset="100%" stop-color="#f6b48f"/>
    </linearGradient>
  </defs>

  <!-- Geschwungene, überlappende Linien mit weichen Außenenden -->
  <g fill="none" stroke="url(#infinityGradient)" stroke-width="2" stroke-linecap="round">
    <path d="M100,125 Q150,40 200,125 Q250,210 300,125 Q250,40 200,125 Q150,210 100,125"/>
    <path d="M95,130 Q145,45 205,125 Q255,205 305,130 Q255,45 205,125 Q145,205 95,130" />
    <path d="M105,120 Q155,35 195,125 Q245,215 295,120 Q245,35 195,125 Q155,215 105,120"/>
    <path d="M90,135 Q140,50 210,125 Q260,200 310,135 Q260,50 210,125 Q140,200 90,135"/>
    <path d="M110,115 Q160,30 190,125 Q240,220 290,115 Q240,30 190,125 Q160,220 110,115"/>
    <path d="M85,140 Q135,55 215,125 Q265,195 315,140 Q265,55 215,125 Q135,195 85,140"/>
    <path d="M115,110 Q165,25 185,125 Q235,225 285,110 Q235,25 185,125 Q165,225 115,110"/>
    <path d="M80,145 Q130,60 220,125 Q270,190 320,145 Q270,60 220,125 Q130,190 80,145"/>
    <path d="M120,105 Q170,20 180,125 Q230,230 280,105 Q230,20 180,125 Q170,230 120,105"/>
  </g>
</svg>